<svg width="28" height="27" viewBox="0 0 28 27" fill="none" xmlns="http://www.w3.org/2000/svg">
<path d="M9.07031 4.5C9.07031 5.76562 8.625 6.84375 7.73438 7.73438C6.89062 8.57812 5.83594 9 4.57031 9C3.30469 9 2.22656 8.57812 1.33594 7.73438C0.492188 6.84375 0.0703125 5.76562 0.0703125 4.5C0.0703125 3.23438 0.492188 2.17969 1.33594 1.33594C2.22656 0.445312 3.30469 0 4.57031 0C5.83594 0 6.89062 0.445312 7.73438 1.33594C8.625 2.17969 9.07031 3.23438 9.07031 4.5ZM22.5703 18C23.8359 18 24.8906 18.4453 25.7344 19.3359C26.625 20.1797 27.0703 21.2344 27.0703 22.5C27.0703 23.7656 26.625 24.8438 25.7344 25.7344C24.8906 26.5781 23.8359 27 22.5703 27C21.3047 27 20.2266 26.5781 19.3359 25.7344C18.4922 24.8438 18.0703 23.7656 18.0703 22.5C18.0703 21.2344 18.4922 20.1797 19.3359 19.3359C20.2266 18.4453 21.3047 18 22.5703 18ZM25.5938 3.02344C26.0625 3.49219 26.2969 4.03125 26.2969 4.64062C26.2969 5.25 26.0625 5.78906 25.5938 6.25781L6.32812 25.5234C5.85938 25.9922 5.32031 26.2266 4.71094 26.2266C4.10156 26.2266 3.5625 25.9922 3.09375 25.5234L1.54688 23.9766C1.07812 23.5078 0.84375 22.9688 0.84375 22.3594C0.84375 21.75 1.07812 21.2109 1.54688 20.7422L20.8125 1.47656C21.2812 1.00781 21.8203 0.773438 22.4297 0.773438C23.0391 0.773438 23.5781 1.00781 24.0469 1.47656L25.5938 3.02344Z" fill="#4A4A4A"/>
</svg>
