<svg fill="none" height="33" viewBox="0 0 27 33" width="27" xmlns="http://www.w3.org/2000/svg"><path d="m16.8047 21h-6.4688v2.25h11.3203c.5626 0 .8438.2812.8438.8438v2.8124c0 .5626-.2812.8438-.8438.8438h-11.3203v3.6562c0 .2344-.0937.4219-.2812.5626-.14064.1874-.32814.2812-.56251.2812h-4.14844c-.5625 0-.84375-.2812-.84375-.8438v-3.6562h-3.65625c-.5625 0-.84375-.2812-.84375-.8438v-2.8124c0-.5626.28125-.8438.84375-.8438h3.65625v-2.25h-3.65625c-.5625 0-.84375-.2812-.84375-.8438v-3.164c0-.2344.0703125-.4219.210938-.5625.1875-.1875.398437-.2813.632812-.2813h3.65625v-14.55465c0-.5625.28125-.84375.84375-.84375h11.46095c3 0 5.4375.9375 7.3125 2.8125 1.9219 1.82812 2.8828 4.24219 2.8828 7.2422 0 3-.9609 5.4609-2.8828 7.3828-1.875 1.875-4.3125 2.8125-7.3125 2.8125zm-6.4688-15.39844v10.54684h5.4141c1.6875 0 3-.4687 3.9375-1.4062.9375-.9844 1.4063-2.2969 1.4063-3.9375 0-1.59376-.4688-2.85939-1.4063-3.79689s-2.2266-1.40625-3.8672-1.40625z" fill="#4a4a4a"/></svg>